<svg xmlns="http://www.w3.org/2000/svg" viewBox="0 0 24.4 34.37"><defs><style>.cls-1{fill:#a51d37;}.cls-2{fill:#9c9b9d;}.cls-3{fill:#9c9c9d;}.cls-4{font-size:4.74px;fill:#eaeaea;}.cls-4,.cls-7{font-family:NexaBold, Nexa Bold;}.cls-5{letter-spacing:0.01em;}.cls-6{fill:#505050;}.cls-7{font-size:2.23px;fill:#acabab;letter-spacing:0.88em;}.cls-8{letter-spacing:0.9em;}.cls-9{letter-spacing:0.89em;}</style></defs><title>Asset 4</title><g id="Layer_2" data-name="Layer 2"><g id="Layer_1-2" data-name="Layer 1"><rect class="cls-1" y="23.67" width="23.2" height="5.57"/><path class="cls-1" d="M10.6,8A4,4,0,0,0,8.75,9a4.59,4.59,0,0,0-1.19,2.47H4.87a7.33,7.33,0,0,1,2-4.32A6.64,6.64,0,0,1,10,5.43,3.24,3.24,0,0,1,10.6,8Z"/><path class="cls-2" d="M17.86,5.19V19.81H12.13c-4,0-6.1-2.2-6.91-4.7h2.9a3.62,3.62,0,0,0,.5.71,4.46,4.46,0,0,0,3.51,1.45H15.2V7.77h-.77V5.19Z"/><path class="cls-3" d="M13.54,4.41a9.08,9.08,0,0,0-2.78.33A4.36,4.36,0,0,0,10.24,4,4.46,4.46,0,0,0,6.73,2.54H3.66V12h.57c-.15.2-.4.83.11,2.59H1V0H6.73a7,7,0,0,1,5.63,2.35A6.84,6.84,0,0,1,13.54,4.41Z"/><path class="cls-1" d="M14,7.75v0s0,.06,0,.08a7.43,7.43,0,0,1-2,4.77A6.24,6.24,0,0,1,10,14a7.43,7.43,0,0,1-1.81.51l-.21,0a5.38,5.38,0,0,1-.39-1.91c0-.22,0-.44,0-.65l.2,0a4.78,4.78,0,0,0,1.29-.43,3.72,3.72,0,0,0,1-.76A4.64,4.64,0,0,0,11.35,7.9a.17.17,0,0,0,0-.07h0A4.07,4.07,0,0,1,14,7.75Z"/><text class="cls-4" transform="translate(1.95 28)"><tspan class="cls-5">D</tspan><tspan x="3.38" y="0">OGGED</tspan><tspan class="cls-6" x="20.3" y="0"> </tspan></text><text class="cls-7" transform="translate(0.85 33.68)">D<tspan class="cls-8" x="3.54" y="0">E</tspan><tspan x="6.94" y="0">SIG</tspan><tspan class="cls-9" x="16.52" y="0">N</tspan><tspan x="20.1" y="0">S</tspan></text></g></g></svg>