<svg xmlns="http://www.w3.org/2000/svg" viewBox="0 0 20 20"><defs><style>.cls-1{fill:#fff;}</style></defs><title>facebook</title><g id="Layer_2" data-name="Layer 2"><g id="Layer_1-2" data-name="Layer 1"><path class="cls-1" d="M14.38,0H5.63A5.63,5.63,0,0,0,0,5.63v8.75A5.63,5.63,0,0,0,5.63,20H10V12.5H7.5a.62.62,0,0,1-.62-.62V10a.61.61,0,0,1,.62-.62H10V7.5c0-2.07,1.06-3.75,3.13-3.75h2.5a.63.63,0,0,1,.62.63V6.25a.63.63,0,0,1-.62.63H13.24a.11.11,0,0,0-.11.11V9.38h3.12a.62.62,0,0,1,.58.85l-1.25,1.88a.62.62,0,0,1-.58.39H13.13V20h1.25A5.62,5.62,0,0,0,20,14.38V5.63A5.63,5.63,0,0,0,14.38,0Z"/></g></g></svg>