<svg xmlns="http://www.w3.org/2000/svg" viewBox="0 0 33 26"><defs><style>.cls-1{fill:none;stroke:#fff;stroke-miterlimit:10;}</style></defs><title>front-end</title><g id="Layer_2" data-name="Layer 2"><g id="Layer_1-2" data-name="Layer 1"><path class="cls-1" d="M29.5,4.5h-7a3,3,0,0,0-3,3v15a3,3,0,0,0,3,3h7a3,3,0,0,0,3-3V7.5A3,3,0,0,0,29.5,4.5Zm-2,18h-3a1,1,0,0,1,0-2h3a1,1,0,0,1,0,2Zm3-5h-9V7.5a1,1,0,0,1,1-1h7a1,1,0,0,1,1,1Z"/><path class="cls-1" d="M17.5,13.5H5.5V2.5h20v-1a1,1,0,0,0-1-1H4.5a1,1,0,0,0-1,1v12a1,1,0,0,0-.93.63l-2,5a1,1,0,0,0,.1.93,1,1,0,0,0,.83.44h16Z"/></g></g></svg>