<svg xmlns="http://www.w3.org/2000/svg" viewBox="0 0 20 20"><defs><style>.cls-1{fill:#f9f9fa;}</style></defs><title>link</title><g id="Layer_2" data-name="Layer 2"><g id="Layer_1-2" data-name="Layer 1"><path class="cls-1" d="M14.38,0H5.63A5.63,5.63,0,0,0,0,5.63v8.75A5.63,5.63,0,0,0,5.63,20h8.75A5.62,5.62,0,0,0,20,14.38V5.63A5.63,5.63,0,0,0,14.38,0ZM7.5,15.63a.62.62,0,0,1-.62.62H4.38a.63.63,0,0,1-.63-.62V8.13a.63.63,0,0,1,.63-.63h2.5a.63.63,0,0,1,.62.63ZM5.63,6.88A1.88,1.88,0,1,1,7.5,5,1.88,1.88,0,0,1,5.63,6.88Zm10.62,8.75a.62.62,0,0,1-.62.62H13.75a.62.62,0,0,1-.62-.62V11.56a.94.94,0,0,0-1.88,0v4.07a.62.62,0,0,1-.62.62H8.75a.62.62,0,0,1-.62-.62V8.13a.62.62,0,0,1,.62-.63h2.5a.6.6,0,0,1,.44.19,3.3,3.3,0,0,1,1.12-.19,3.44,3.44,0,0,1,3.44,3.44Z"/></g></g></svg>