<svg xmlns="http://www.w3.org/2000/svg" viewBox="0 0 31 29"><defs><style>.cls-1{fill:none;stroke:#fff;stroke-miterlimit:10;}</style></defs><title>ui_ux</title><g id="Layer_2" data-name="Layer 2"><g id="Layer_1-2" data-name="Layer 1"><path class="cls-1" d="M29.5,13.5h-11v-1a1,1,0,0,0-1-1h-4a1,1,0,0,0-1,1V13A10,10,0,0,1,6,6.5H6.5a1,1,0,0,0,1-1v-4a1,1,0,0,0-1-1h-4a1,1,0,0,0-1,1v4a1,1,0,0,0,1,1H3.88a12.05,12.05,0,0,0,5,7H1.5a1,1,0,0,0,0,2h11v1a1,1,0,0,0,1,1h4a1,1,0,0,0,1-1V16A10,10,0,0,1,25,22.5H24.5a1,1,0,0,0-1,1v4a1,1,0,0,0,1,1h4a1,1,0,0,0,1-1v-4a1,1,0,0,0-1-1H27.12a12.05,12.05,0,0,0-5-7H29.5a1,1,0,0,0,0-2Z"/></g></g></svg>